 <svg version="1.0" xmlns="http://www.w3.org/2000/svg"  width="900.000000pt" height="864.000000pt" viewBox="0 0 900.000000 864.000000"  preserveAspectRatio="xMidYMid meet">  <g transform="translate(0.000000,864.000000) scale(0.100000,-0.100000)" fill="#134f5c" stroke="none"> <path d="M4647 8053 c-4 -3 -7 -165 -7 -360 0 -274 3 -355 13 -358 6 -3 71 -11 142 -19 112 -13 217 -32 365 -66 108 -24 265 -76 322 -106 14 -8 32 -14 39 -14 16 0 309 -147 330 -166 8 -8 19 -14 23 -14 5 0 29 -14 55 -32 25 -17 73 -49 105 -71 204 -137 466 -401 637 -642 92 -130 241 -405 284 -525 72 -201 90 -259 124 -410 50 -221 71 -519 53 -770 -7 -91 -7 -139 0 -147 8 -10 92 -13 359 -13 333 0 349 1 359 19 18 35 31 337 20 477 -24 309 -40 433 -74 584 -77 348 -189 638 -371 965 -54 98 -215 332 -298 435 -107 133 -380 400 -517 508 -308 240 -619 414 -960 537 -76 27 -106 37 -135 45 -16 5 -61 18 -100 29 -241 71 -738 144 -768 114z"></path> <path d="M4229 8046 c-2 -3 -56 -9 -119 -15 -126 -12 -334 -53 -485 -95 -77 -22 -296 -95 -332 -112 -17 -8 -33 -14 -36 -14 -26 0 -379 -179 -469 -237 -24 -16 -47 -30 -53 -33 -43 -22 -321 -223 -345 -250 -3 -3 -34 -30 -70 -60 -375 -315 -708 -778 -900 -1250 -12 -30 -28 -68 -35 -85 -24 -56 -66 -189 -106 -330 -37 -135 -65 -273 -79 -395 -5 -47 -15 -114 -21 -150 -6 -40 -9 -176 -7 -358 2 -247 5 -294 18 -302 18 -11 660 -13 675 -2 7 4 11 110 10 307 0 308 4 356 51 585 25 123 102 371 146 470 265 599 693 1058 1248 1341 98 49 230 109 242 109 8 0 18 4 24 9 5 5 26 14 47 21 73 23 67 191 67 -1850 0 -1665 -1 -1838 -16 -1844 -33 -13 -226 160 -329 294 -26 34 -70 100 -98 148 -45 76 -62 111 -108 217 -38 86 -76 253 -92 395 l-13 115 -319 0 -320 0 -3 -34 c-4 -38 21 -244 44 -361 20 -108 62 -253 90 -317 8 -17 14 -36 14 -42 0 -6 4 -19 9 -29 5 -9 33 -66 62 -127 162 -339 428 -636 769 -857 96 -63 260 -147 334 -172 26 -9 56 -21 66 -26 81 -43 528 -135 560 -115 6 4 10 1004 10 2731 l0 2724 -63 0 c-35 0 -66 -2 -68 -4z"></path> <path d="M4650 4086 l0 -2736 38 0 c79 1 507 60 529 73 5 3 34 11 64 16 30 5 79 17 109 25 30 8 98 27 150 41 52 14 109 33 127 41 17 7 36 14 42 14 6 0 19 4 29 10 9 5 35 17 57 26 153 64 347 162 460 232 459 281 854 683 1131 1147 121 204 213 395 264 550 13 39 27 75 31 80 3 6 10 26 14 45 4 19 11 41 16 50 4 8 13 35 19 60 6 25 18 70 26 100 8 30 21 87 28 125 8 39 17 78 21 88 7 16 -14 17 -359 17 -305 0 -366 -2 -366 -14 0 -30 -78 -266 -126 -383 -31 -76 -145 -305 -164 -328 -4 -5 -24 -41 -45 -80 -103 -193 -362 -483 -585 -657 -155 -120 -347 -243 -465 -297 -212 -98 -229 -105 -308 -126 -47 -13 -48 -13 -58 11 -10 29 -12 2282 -1 2354 l7 45 234 3 c142 1 238 -1 244 -7 6 -6 10 -300 9 -790 -1 -655 1 -781 13 -781 20 0 66 40 185 159 185 185 338 410 444 655 l26 58 0 784 c0 467 -4 791 -9 802 -5 9 -30 62 -56 116 -116 250 -291 486 -497 667 -43 38 -85 69 -92 69 -13 0 -15 -73 -15 -508 0 -279 -3 -515 -7 -525 -6 -16 -25 -17 -242 -15 l-236 3 -8 30 c-4 17 -8 322 -7 678 0 357 -1 650 -3 651 -9 6 -118 46 -148 55 -177 53 -283 75 -472 98 l-48 6 0 -2737z"></path> <path d="M1215 4090 c-7 -11 0 -57 21 -150 52 -222 137 -470 225 -658 16 -34 29 -64 29 -66 0 -2 26 -52 59 -110 32 -57 61 -111 65 -118 43 -84 216 -331 300 -429 17 -19 42 -49 55 -65 198 -237 496 -491 796 -676 43 -27 107 -62 225 -125 158 -85 444 -195 640 -247 184 -49 307 -76 346 -76 18 0 65 -7 106 -15 49 -10 115 -15 194 -13 l119 3 0 355 0 355 -65 6 c-70 5 -190 23 -280 40 -30 6 -75 15 -100 19 -153 25 -422 122 -615 220 -158 80 -191 99 -315 185 -432 299 -779 739 -962 1220 -28 74 -86 255 -93 295 -4 19 -12 41 -17 48 -13 15 -723 18 -733 2z"></path> <path d="M4772 891 c-6 -4 -12 -45 -14 -91 l-3 -85 -110 0 -110 0 -5 85 c-5 83 -6 85 -30 85 l-25 0 -3 -211 c-2 -179 0 -213 13 -224 30 -25 44 5 47 103 l3 92 110 0 110 0 3 -95 c2 -52 7 -99 11 -103 5 -5 18 -6 30 -2 20 6 21 12 21 225 0 205 -1 218 -19 223 -10 2 -24 2 -29 -2z"></path> <path d="M5348 889 c-16 -9 -18 -29 -18 -184 l0 -174 -26 -20 c-44 -34 -141 -24 -161 18 -4 9 -10 93 -13 186 l-5 170 -27 3 -28 3 0 -168 c0 -189 8 -220 69 -260 46 -31 139 -32 186 -3 64 40 69 57 73 243 5 190 -2 214 -50 186z"></path> <path d="M6221 891 c-8 -5 -11 -16 -8 -25 4 -11 23 -16 69 -18 l63 -3 3 -191 c3 -199 8 -223 46 -208 14 5 16 29 16 189 0 101 3 190 6 199 5 12 20 16 63 16 31 0 63 5 71 10 13 9 12 12 -4 25 -16 12 -52 15 -165 15 -80 0 -152 -4 -160 -9z"></path> <path d="M3107 867 c-61 -37 -80 -78 -85 -183 -6 -123 18 -178 96 -218 75 -39 164 -9 210 69 20 36 22 51 20 146 -3 99 -5 108 -32 143 -51 67 -139 85 -209 43z m154 -30 c43 -37 59 -82 59 -169 0 -60 -5 -89 -20 -119 -23 -45 -71 -79 -112 -79 -132 0 -190 250 -83 357 28 28 40 33 82 33 35 -1 55 -7 74 -23z"></path> <path d="M3632 878 c-15 -18 -12 -402 4 -418 16 -16 211 4 234 25 46 42 46 140 -1 165 -25 14 -24 52 1 68 14 9 20 23 20 50 0 57 -9 77 -42 97 -42 25 -198 34 -216 13z m203 -45 c27 -30 31 -58 14 -97 -13 -29 -55 -46 -111 -46 -66 0 -78 12 -78 80 0 88 1 90 81 90 62 0 71 -3 94 -27z m1 -181 c18 -11 34 -49 34 -77 0 -58 -39 -88 -126 -98 -71 -8 -84 7 -84 100 0 48 4 73 13 76 19 8 151 7 163 -1z"></path> <path d="M5647 883 c-9 -8 -9 -360 -1 -403 7 -33 29 -49 44 -34 5 5 10 76 11 157 3 187 9 189 106 35 109 -173 131 -200 156 -196 22 3 22 5 25 226 l2 223 -27 -3 -28 -3 -3 -145 c-1 -79 -6 -148 -11 -153 -4 -4 -24 16 -43 45 -19 29 -65 99 -102 156 -58 89 -70 102 -95 102 -15 0 -31 -3 -34 -7z"></path> <path d="M2720 710 l0 -169 -35 -36 c-24 -23 -45 -35 -64 -35 -32 0 -77 31 -86 60 -5 17 -45 30 -45 15 0 -22 31 -60 62 -76 66 -34 146 -19 182 33 23 33 24 378 1 378 -13 0 -15 -26 -15 -170z"></path> </g> </svg> 